<svg id="Layer_1" data-name="Layer 1" xmlns="http://www.w3.org/2000/svg" xmlns:xlink="http://www.w3.org/1999/xlink" viewBox="0 0 650 248.89">
  <defs>
    <style>
      .cls-1 {
        fill: none;
      }

      .cls-2 {
        fill: #f5f5f5;
      }

      .cls-3, .cls-4, .cls-53, .cls-54, .cls-55, .cls-56 {
        fill: #004990;
      }

      .cls-4 {
        fill-opacity: 0.28;
      }

      .cls-5 {
        clip-path: url(#clip-path);
      }

      .cls-6 {
        clip-path: url(#clip-path-2);
      }

      .cls-7 {
        fill: url(#linear-gradient);
      }

      .cls-8 {
        clip-path: url(#clip-path-3);
      }

      .cls-9 {
        fill: url(#radial-gradient);
      }

      .cls-10, .cls-56 {
        font-size: 6px;
      }

      .cls-10, .cls-53, .cls-67 {
        font-family: Montserrat-Bold, Montserrat;
        font-weight: 700;
      }

      .cls-11 {
        letter-spacing: 0em;
      }

      .cls-12 {
        letter-spacing: 0em;
      }

      .cls-118, .cls-13 {
        font-family: Montserrat-Light, Montserrat;
        font-weight: 300;
      }

      .cls-14, .cls-81 {
        letter-spacing: -0.01em;
      }

      .cls-15 {
        letter-spacing: -0.01em;
      }

      .cls-16 {
        letter-spacing: -0.02em;
      }

      .cls-17, .cls-82 {
        letter-spacing: -0.01em;
      }

      .cls-18 {
        letter-spacing: 0.01em;
      }

      .cls-19, .cls-76 {
        letter-spacing: -0.01em;
      }

      .cls-20, .cls-79 {
        letter-spacing: -0.02em;
      }

      .cls-21 {
        letter-spacing: -0.01em;
      }

      .cls-22, .cls-75 {
        letter-spacing: -0.02em;
      }

      .cls-23 {
        letter-spacing: -0.01em;
      }

      .cls-24 {
        letter-spacing: -0.01em;
      }

      .cls-25 {
        letter-spacing: -0.01em;
      }

      .cls-26, .cls-84 {
        letter-spacing: -0.02em;
      }

      .cls-27, .cls-77 {
        letter-spacing: 0em;
      }

      .cls-28 {
        letter-spacing: -0.02em;
      }

      .cls-29 {
        letter-spacing: -0.01em;
      }

      .cls-30 {
        letter-spacing: -0.03em;
      }

      .cls-31 {
        letter-spacing: -0.02em;
      }

      .cls-32 {
        letter-spacing: -0.01em;
      }

      .cls-33, .cls-99 {
        letter-spacing: 0em;
      }

      .cls-34, .cls-74 {
        letter-spacing: -0.01em;
      }

      .cls-35 {
        letter-spacing: -0.02em;
      }

      .cls-36 {
        letter-spacing: 0.01em;
      }

      .cls-37 {
        letter-spacing: -0.03em;
      }

      .cls-38 {
        letter-spacing: 0.02em;
      }

      .cls-39, .cls-73 {
        letter-spacing: -0.02em;
      }

      .cls-40, .cls-98 {
        letter-spacing: -0.01em;
      }

      .cls-41 {
        letter-spacing: -0.02em;
      }

      .cls-42 {
        letter-spacing: -0.01em;
      }

      .cls-43 {
        letter-spacing: -0.06em;
      }

      .cls-44 {
        letter-spacing: -0.02em;
      }

      .cls-45 {
        letter-spacing: 0em;
      }

      .cls-46 {
        letter-spacing: 0em;
      }

      .cls-47, .cls-69 {
        letter-spacing: -0.01em;
      }

      .cls-48 {
        letter-spacing: -0.03em;
      }

      .cls-49, .cls-87 {
        letter-spacing: -0.02em;
      }

      .cls-50 {
        letter-spacing: -0.04em;
      }

      .cls-51 {
        letter-spacing: -0.02em;
      }

      .cls-52 {
        letter-spacing: -0.04em;
      }

      .cls-53 {
        font-size: 20.45px;
      }

      .cls-54, .cls-55 {
        font-size: 10.23px;
      }

      .cls-100, .cls-54, .cls-56, .cls-68, .cls-69, .cls-70, .cls-71, .cls-72, .cls-73, .cls-74, .cls-75, .cls-76, .cls-77, .cls-79, .cls-80, .cls-81, .cls-82, .cls-83, .cls-84, .cls-85, .cls-86, .cls-87, .cls-90, .cls-91, .cls-92, .cls-93, .cls-94, .cls-96, .cls-97, .cls-98, .cls-99 {
        font-family: Montserrat-Medium, Montserrat;
        font-weight: 500;
      }

      .cls-109, .cls-113, .cls-116, .cls-55 {
        font-family: Montserrat-Regular, Montserrat;
      }

      .cls-57, .cls-71 {
        letter-spacing: -0.01em;
      }

      .cls-58, .cls-94 {
        letter-spacing: 0em;
      }

      .cls-59 {
        letter-spacing: 0.02em;
      }

      .cls-60, .cls-80 {
        letter-spacing: -0.04em;
      }

      .cls-61 {
        letter-spacing: 0.03em;
      }

      .cls-62 {
        letter-spacing: -0.04em;
      }

      .cls-63, .cls-86 {
        letter-spacing: 0.01em;
      }

      .cls-64, .cls-70 {
        letter-spacing: -0.01em;
      }

      .cls-65 {
        letter-spacing: 0.01em;
      }

      .cls-66, .cls-97 {
        letter-spacing: -0.01em;
      }

      .cls-72, .cls-89 {
        letter-spacing: 0em;
      }

      .cls-78 {
        letter-spacing: -0.04em;
      }

      .cls-83 {
        letter-spacing: 0em;
      }

      .cls-85 {
        letter-spacing: -0.01em;
      }

      .cls-88 {
        letter-spacing: -0.01em;
      }

      .cls-90 {
        letter-spacing: -0.03em;
      }

      .cls-91 {
        letter-spacing: -0.02em;
      }

      .cls-92 {
        letter-spacing: 0.02em;
      }

      .cls-93 {
        letter-spacing: -0.02em;
      }

      .cls-95 {
        letter-spacing: -0.06em;
      }

      .cls-96 {
        letter-spacing: -0.05em;
      }

      .cls-100 {
        letter-spacing: -0.03em;
      }

      .cls-101 {
        clip-path: url(#clip-path-4);
      }

      .cls-102 {
        clip-path: url(#clip-path-5);
      }

      .cls-103 {
        fill: url(#linear-gradient-2);
      }

      .cls-104 {
        clip-path: url(#clip-path-6);
      }

      .cls-105 {
        fill: url(#linear-gradient-3);
      }

      .cls-106 {
        clip-path: url(#clip-path-7);
      }

      .cls-107 {
        fill: url(#radial-gradient-2);
      }

      .cls-108 {
        fill: #124b8d;
      }

      .cls-109, .cls-113, .cls-116 {
        font-size: 9.96px;
      }

      .cls-109, .cls-113, .cls-116, .cls-118 {
        fill: #80a0b5;
      }

      .cls-110, .cls-113 {
        letter-spacing: 0em;
      }

      .cls-111 {
        letter-spacing: -0.01em;
      }

      .cls-112, .cls-116 {
        letter-spacing: -0.01em;
      }

      .cls-114 {
        letter-spacing: -0.01em;
      }

      .cls-115 {
        letter-spacing: 0em;
      }

      .cls-117 {
        letter-spacing: 0em;
      }

      .cls-118 {
        font-size: 7.9px;
      }

      .cls-119 {
        letter-spacing: 0.02em;
      }
    </style>
    <clipPath id="clip-path">
      <rect class="cls-1" x="556.75" y="20.46" width="75.81" height="78.22"/>
    </clipPath>
    <clipPath id="clip-path-2">
      <path class="cls-1" d="M616.09,59.57Zm-22.47,15a15.14,15.14,0,1,0-15.13-15.13A15.13,15.13,0,0,0,593.62,74.6M558.94,55.72a7.14,7.14,0,0,0,5,1.81A8.46,8.46,0,0,0,570,54.84a23.3,23.3,0,0,0,1.75-3.28C576.05,43.18,584.06,37,593.62,37a22.12,22.12,0,0,1,16.49,7.22,23.23,23.23,0,0,1,6,15.1v.54a23.23,23.23,0,0,1-6,15.1,22.12,22.12,0,0,1-16.49,7.23c-9.56,0-17.57-6.21-21.86-14.59A23.3,23.3,0,0,0,570,64.3,8.46,8.46,0,0,0,564,61.61a7.14,7.14,0,0,0-5,1.81c-1.05,1-2.19,2.39-2.19,5.58,0,2.83.86,5.63,2.79,9.45l0,0,0,0c4.84,8.16,9.42,12.6,16.73,16.11.69.35,1.52.72,2.45,1.09,0,0,0,0,0,0a38.52,38.52,0,0,0,15,2.93h0a34.65,34.65,0,0,0,5.14-.37,36.8,36.8,0,0,0,17.68-7.16,36.35,36.35,0,0,0,10.56-11.54,40,40,0,0,0,5.39-18.78h0V59.57h0V58.32h0a40,40,0,0,0-5.39-18.79,39.3,39.3,0,0,0-28.24-18.69,33,33,0,0,0-5.11-.38h-.13a38.67,38.67,0,0,0-14.9,2.93s0,0,0,0c-.93.38-1.76.74-2.45,1.09-7.31,3.51-11.89,8-16.73,16.11l0,0,0,0c-1.93,3.82-2.79,6.63-2.79,9.45,0,3.2,1.14,4.59,2.19,5.58"/>
    </clipPath>
    <linearGradient id="linear-gradient" x1="-742.5" y1="-2291.05" x2="-741.5" y2="-2291.05" gradientTransform="matrix(0, -78.26, -78.26, 0, -178702.69, -58010)" gradientUnits="userSpaceOnUse">
      <stop offset="0" stop-color="#bac8df"/>
      <stop offset="0.02" stop-color="#bac8df"/>
      <stop offset="0.14" stop-color="#6d97c0"/>
      <stop offset="0.43" stop-color="#fff"/>
      <stop offset="0.63" stop-color="#6d97c0"/>
      <stop offset="0.99" stop-color="#fff"/>
      <stop offset="1" stop-color="#fff"/>
    </linearGradient>
    <clipPath id="clip-path-3">
      <path class="cls-1" d="M579.77,59.74v.11h0a13.84,13.84,0,0,0,27.68,0h0v-.22h0a13.84,13.84,0,0,0-27.68,0h0v.11m13.85-23.66a23.66,23.66,0,1,1,0,47.32c-9.48.08-17.32-5.29-21.71-13.88C576.51,82.36,593,95.91,614.36,91c8.75-5.43,16.82-17,16.82-31.23s-8.07-25.81-16.82-31.24C593,23.56,576.51,37.11,571.91,50c4.39-8.6,12.23-14,21.71-13.88M579.51,94.51a35.85,35.85,0,0,0,19.21,2.38A35.26,35.26,0,0,0,610.87,93c-22.15,2.73-38.12-12.92-40.32-25.2-.06.87-.09,1.74-.09,2.59a36,36,0,0,0,9,24.12m-9-42.84c2.2-12.28,18.17-27.92,40.32-25.2a35.26,35.26,0,0,0-12.15-3.89A35.85,35.85,0,0,0,579.51,25a36,36,0,0,0-9,24.11c0,.86,0,1.72.09,2.59m-9.89,26.11c4.8,8.08,9.33,12.29,16.28,15.62-5.81-8-8.34-15.78-7.63-26.6-.48-4.9-11.14-5.6-11.14,2.68a18.56,18.56,0,0,0,2.49,8.3m8.65-25.11c-.71-10.81,1.82-18.62,7.63-26.6-7,3.33-11.48,7.54-16.28,15.63A18.52,18.52,0,0,0,558.17,50c0,8.28,10.66,7.58,11.14,2.68"/>
    </clipPath>
    <radialGradient id="radial-gradient" cx="-742.5" cy="-2291.05" r="1" gradientTransform="translate(85462.41 -27444.8) rotate(-90) scale(37.04)" gradientUnits="userSpaceOnUse">
      <stop offset="0" stop-color="#6391bf"/>
      <stop offset="0.34" stop-color="#3672b1"/>
      <stop offset="0.54" stop-color="#3270af"/>
      <stop offset="1" stop-color="#124b8d"/>
    </radialGradient>
    <clipPath id="clip-path-4">
      <rect class="cls-1" x="13.88" y="32.44" width="174.68" height="67.67"/>
    </clipPath>
    <clipPath id="clip-path-5">
      <path class="cls-1" d="M44,77.35Zm-11.37-17A11.45,11.45,0,1,0,44.05,48.89,11.46,11.46,0,0,0,32.6,60.34M46.88,34.1a5.38,5.38,0,0,0-1.37,3.79,6.41,6.41,0,0,0,2,4.58A17.41,17.41,0,0,0,50,43.8c6.35,3.24,11,9.31,11,16.54A16.73,16.73,0,0,1,55.6,72.82a17.6,17.6,0,0,1-11.42,4.53h-.41a17.6,17.6,0,0,1-11.43-4.53,16.73,16.73,0,0,1-5.47-12.48c0-7.23,4.7-13.3,11-16.54a17.41,17.41,0,0,0,2.48-1.33,6.41,6.41,0,0,0,2-4.58,5.38,5.38,0,0,0-1.37-3.79,5.15,5.15,0,0,0-4.23-1.66c-2.13,0-4.25.65-7.14,2.11l0,0h0c-6.17,3.67-9.53,7.13-12.19,12.66-.26.53-.54,1.16-.83,1.85l0,0a29.49,29.49,0,0,0-1.93,15.24,27.73,27.73,0,0,0,5.42,13.38,27.44,27.44,0,0,0,8.73,8A30.16,30.16,0,0,0,43,89.8h1.9a30.16,30.16,0,0,0,14.21-4.08,27.58,27.58,0,0,0,8.74-8,27.7,27.7,0,0,0,5.41-13.38,29.49,29.49,0,0,0-1.93-15.24l0,0c-.29-.69-.56-1.32-.83-1.85-2.65-5.53-6-9-12.19-12.66h0l0,0a15.65,15.65,0,0,0-7.15-2.11,5.15,5.15,0,0,0-4.23,1.66"/>
    </clipPath>
    <linearGradient id="linear-gradient-2" x1="-744.45" y1="-2294.31" x2="-744.37" y2="-2294.31" gradientTransform="matrix(703.41, 0, 0, -703.41, 523667, -1613777.2)" xlink:href="#linear-gradient"/>
    <clipPath id="clip-path-6">
      <path class="cls-1" d="M110.54,35.26h-6.85v1.17l0,14.9L91.93,35.72l-.36-.46H84.19V64.89h8.07v-16L104,64.42l.35.47h7.34V35.26Zm26.07,0H115.37V64.89h8.55V54.59H136.7v-7H123.92V42.3h13.83V41.13l0-4.69V35.26Zm14.88,21.67a7.82,7.82,0,0,1-2.68-2.85,8.58,8.58,0,0,1,0-8,7.39,7.39,0,0,1,2.67-2.82,6.88,6.88,0,0,1,3.64-1,6.63,6.63,0,0,1,3.59,1,7.14,7.14,0,0,1,2.59,2.82,8.37,8.37,0,0,1,1,4,8.51,8.51,0,0,1-1,4,7.4,7.4,0,0,1-2.59,2.84,6.56,6.56,0,0,1-3.59,1,6.79,6.79,0,0,1-3.62-1m-4.6-20.14A14.72,14.72,0,0,0,139.05,50a15.19,15.19,0,0,0,2.09,7.87,14.94,14.94,0,0,0,5.75,5.54,16.75,16.75,0,0,0,8.14,2,16.5,16.5,0,0,0,8.14-2A15,15,0,0,0,171,50a14.72,14.72,0,0,0-7.84-13.22,17.7,17.7,0,0,0-16.27,0"/>
    </clipPath>
    <linearGradient id="linear-gradient-3" x1="-744.67" y1="-2289.14" x2="-744.59" y2="-2289.14" gradientTransform="matrix(906.92, 0, 0, 906.92, 675439.45, 2076105.15)" xlink:href="#linear-gradient"/>
    <clipPath id="clip-path-7">
      <path class="cls-1" d="M43.85,49.86h-.09a10.48,10.48,0,0,0,0,20.95h.17a10.48,10.48,0,0,0,0-20.95h-.08m17.9,10.48a17.91,17.91,0,1,1-35.81,0c-.06-7.17,4-13.1,10.5-16.43-9.72,3.48-20,16-16.23,32.13a28.31,28.31,0,0,0,47.27,0C71.22,59.89,61,47.39,51.25,43.91c6.5,3.33,10.56,9.26,10.5,16.43M17.54,49.66A27.08,27.08,0,0,0,15.73,64.2a26.69,26.69,0,0,0,2.94,9.2c-2.06-16.76,9.78-28.85,19.07-30.52-.66,0-1.31-.06-2-.06a27.2,27.2,0,0,0-18.24,6.84M50,42.88C59.24,44.55,71.08,56.64,69,73.4A26.69,26.69,0,0,0,72,64.2a27.17,27.17,0,0,0-1.8-14.54,27.24,27.24,0,0,0-18.25-6.84c-.65,0-1.3,0-2,.06M30.19,35.4c-6.11,3.63-9.3,7.06-11.82,12.32A28.34,28.34,0,0,1,38.5,42c3.71-.37,4.24-8.43-2-8.43a14,14,0,0,0-6.28,1.88m19,6.55a28.34,28.34,0,0,1,20.13,5.77C66.8,42.46,63.61,39,57.5,35.4a14,14,0,0,0-6.28-1.88c-6.27,0-5.74,8.06-2,8.43"/>
    </clipPath>
    <radialGradient id="radial-gradient-2" cx="-741.21" cy="-2282.6" r="0.08" gradientTransform="translate(246827.21 760046.54) scale(332.95)" xlink:href="#radial-gradient"/>
  </defs>
  <path class="cls-2" d="M99.52,2.34H2.76V60.11h0v57.77H588.05a57.77,57.77,0,0,0,57.78-57.77h0A57.77,57.77,0,0,0,588.05,2.34Z"/>
  <path class="cls-3" d="M202.23,74.87a5.41,5.41,0,1,0,5.41,5.41A5.41,5.41,0,0,0,202.23,74.87Zm0,2.62c.39,0,1,.93,1,2.41h-2C201.32,78.42,201.87,77.49,202.26,77.49Zm-1-.22a4.58,4.58,0,0,0-.81,2.63h-1.37A3.17,3.17,0,0,1,201.3,77.27Zm-2.18,3.38h1.37a4.62,4.62,0,0,0,.81,2.64A3.17,3.17,0,0,1,199.12,80.65Zm3.14,2.42c-.39,0-.94-.93-1-2.42h2C203.21,82.14,202.65,83.07,202.26,83.07Zm1,.22a4.69,4.69,0,0,0,.81-2.64h1.36A3.14,3.14,0,0,1,203.23,83.29ZM204,79.9a4.66,4.66,0,0,0-.81-2.63,3.14,3.14,0,0,1,2.17,2.63Z"/>
  <path class="cls-4" d="M2.76,118.67h566.7a21,21,0,0,1,21,21v0a21,21,0,0,1-21,21H2.76a0,0,0,0,1,0,0V118.67A0,0,0,0,1,2.76,118.67Z"/>
  <g id="Artwork_5" data-name="Artwork 5">
    <g class="cls-5">
      <g class="cls-6">
        <rect class="cls-7" x="540.2" y="5.11" width="108.92" height="108.92" transform="translate(132.05 437.93) rotate(-45)"/>
      </g>
      <g class="cls-8">
        <rect class="cls-9" x="558.17" y="21.52" width="73.02" height="76.43"/>
      </g>
    </g>
  </g>
  <text class="cls-10" transform="translate(20.57 173.69)">Email Dis<tspan class="cls-11" x="29.28" y="0">c</tspan><tspan x="32.8" y="0">lai</tspan><tspan class="cls-12" x="40.12" y="0">m</tspan><tspan x="46.43" y="0">er</tspan><tspan class="cls-13"><tspan x="0" y="7.2">All vi</tspan><tspan class="cls-14" x="13.64" y="7.2">e</tspan><tspan class="cls-15" x="17.16" y="7.2">w</tspan><tspan x="22.3" y="7.2">s or opinions </tspan><tspan class="cls-16" x="61.44" y="7.2">e</tspan><tspan x="64.93" y="7.2">xp</tspan><tspan class="cls-17" x="72.1" y="7.2">r</tspan><tspan x="74.38" y="7.2">essed in this ele</tspan><tspan class="cls-18" x="121.15" y="7.2">c</tspan><tspan x="124.51" y="7.2">t</tspan><tspan class="cls-17" x="126.9" y="7.2">r</tspan><tspan x="129.18" y="7.2">onic message (</tspan><tspan class="cls-19" x="173.72" y="7.2">&quot;</tspan><tspan x="175.77" y="7.2">email&quot;) and a</tspan><tspan class="cls-20" x="214.61" y="7.2">n</tspan><tspan x="218.51" y="7.2">y a</tspan><tspan class="cls-21" x="226.72" y="7.2">t</tspan><tspan class="cls-22" x="229.03" y="7.2">t</tspan><tspan x="231.29" y="7.2">a</tspan><tspan class="cls-23" x="234.79" y="7.2">c</tspan><tspan x="238.07" y="7.2">hments a</tspan><tspan class="cls-17" x="266.41" y="7.2">r</tspan><tspan x="268.69" y="7.2">e those of the sender of this email and do not ne</tspan><tspan class="cls-24" x="412.27" y="7.2">c</tspan><tspan x="415.55" y="7.2">essa</tspan><tspan class="cls-23" x="428.36" y="7.2">r</tspan><tspan x="430.67" y="7.2">i</tspan><tspan class="cls-25" x="432.24" y="7.2">l</tspan><tspan x="433.76" y="7.2">y </tspan><tspan class="cls-17" x="438.47" y="7.2">r</tspan><tspan x="440.75" y="7.2">efle</tspan><tspan class="cls-18" x="451.45" y="7.2">c</tspan><tspan x="454.82" y="7.2">t the vi</tspan><tspan class="cls-14" x="475.03" y="7.2">e</tspan><tspan class="cls-15" x="478.55" y="7.2">w</tspan><tspan x="483.69" y="7.2">s and opinions of the N</tspan><tspan class="cls-24" x="552" y="7.2">F</tspan><tspan class="cls-22" x="555.73" y="7.2">O</tspan><tspan x="560.64" y="7.2">. The </tspan><tspan x="0" y="14.4">in</tspan><tspan class="cls-24" x="5.6" y="14.4">f</tspan><tspan x="7.52" y="14.4">o</tspan><tspan class="cls-23" x="11.24" y="14.4">r</tspan><tspan x="13.55" y="14.4">mation </tspan><tspan class="cls-24" x="36.68" y="14.4">c</tspan><tspan x="39.96" y="14.4">on</tspan><tspan class="cls-22" x="47.72" y="14.4">t</tspan><tspan x="49.99" y="14.4">ained in this message and a</tspan><tspan class="cls-26" x="132.85" y="14.4">n</tspan><tspan x="136.76" y="14.4">y a</tspan><tspan class="cls-17" x="144.97" y="14.4">t</tspan><tspan class="cls-22" x="147.27" y="14.4">t</tspan><tspan x="149.54" y="14.4">a</tspan><tspan class="cls-24" x="153.04" y="14.4">c</tspan><tspan x="156.31" y="14.4">hments m</tspan><tspan class="cls-20" x="187.54" y="14.4">a</tspan><tspan x="190.9" y="14.4">y be </tspan><tspan class="cls-24" x="204.79" y="14.4">c</tspan><tspan x="208.06" y="14.4">onfidential or p</tspan><tspan class="cls-24" x="253.26" y="14.4">r</tspan><tspan class="cls-27" x="255.57" y="14.4">ivileged and is in</tspan><tspan class="cls-28" x="304.99" y="14.4">t</tspan><tspan x="307.27" y="14.4">ended </tspan><tspan class="cls-23" x="328.11" y="14.4">f</tspan><tspan x="330.02" y="14.4">or the use of the named </tspan><tspan class="cls-21" x="403.08" y="14.4">r</tspan><tspan x="405.36" y="14.4">e</tspan><tspan class="cls-24" x="408.94" y="14.4">c</tspan><tspan class="cls-27" x="412.22" y="14.4">ipient on</tspan><tspan class="cls-29" x="438.71" y="14.4">l</tspan><tspan class="cls-30" x="440.23" y="14.4">y</tspan><tspan x="443.2" y="14.4">, </tspan><tspan class="cls-19" x="445.94" y="14.4">e</tspan><tspan class="cls-31" x="449.43" y="14.4">x</tspan><tspan class="cls-23" x="452.44" y="14.4">c</tspan><tspan x="455.71" y="14.4">ept whe</tspan><tspan class="cls-21" x="480.07" y="14.4">r</tspan><tspan x="482.35" y="14.4">e the sender spe</tspan><tspan class="cls-24" x="531.55" y="14.4">c</tspan><tspan class="cls-32" x="534.82" y="14.4">if</tspan><tspan class="cls-33" x="536.31" y="14.4">ical</tspan><tspan class="cls-34" x="548.24" y="14.4">l</tspan><tspan x="549.76" y="14.4">y s</tspan><tspan class="cls-22" x="557.34" y="14.4">t</tspan><tspan x="559.61" y="14.4">a</tspan><tspan class="cls-35" x="563.11" y="14.4">t</tspan><tspan x="565.38" y="14.4">es </tspan><tspan x="0" y="21.6">othe</tspan><tspan class="cls-36" x="13.73" y="21.6">r</tspan><tspan x="16.18" y="21.6">wise. If </tspan><tspan class="cls-19" x="37.39" y="21.6">y</tspan><tspan x="40.47" y="21.6">ou a</tspan><tspan class="cls-17" x="53.24" y="21.6">r</tspan><tspan x="55.52" y="21.6">e not the in</tspan><tspan class="cls-35" x="89.49" y="21.6">t</tspan><tspan x="91.76" y="21.6">ended </tspan><tspan class="cls-17" x="112.61" y="21.6">r</tspan><tspan x="114.89" y="21.6">e</tspan><tspan class="cls-23" x="118.47" y="21.6">c</tspan><tspan x="121.75" y="21.6">ipient </tspan><tspan class="cls-19" x="140.48" y="21.6">y</tspan><tspan x="143.56" y="21.6">ou m</tspan><tspan class="cls-26" x="159.22" y="21.6">a</tspan><tspan x="162.58" y="21.6">y not </tspan><tspan class="cls-23" x="178.98" y="21.6">c</tspan><tspan x="182.26" y="21.6">o</tspan><tspan class="cls-17" x="185.98" y="21.6">p</tspan><tspan class="cls-37" x="189.94" y="21.6">y</tspan><tspan x="192.91" y="21.6">, </tspan><tspan class="cls-23" x="195.65" y="21.6">f</tspan><tspan x="197.56" y="21.6">o</tspan><tspan class="cls-38" x="201.28" y="21.6">r</tspan><tspan class="cls-39" x="203.74" y="21.6">w</tspan><tspan x="208.8" y="21.6">a</tspan><tspan class="cls-17" x="212.3" y="21.6">r</tspan><tspan x="214.58" y="21.6">d or deli</tspan><tspan class="cls-16" x="238.56" y="21.6">v</tspan><tspan x="241.64" y="21.6">er this message </tspan><tspan class="cls-35" x="289.94" y="21.6">t</tspan><tspan x="292.22" y="21.6">o a</tspan><tspan class="cls-26" x="300.98" y="21.6">n</tspan><tspan class="cls-16" x="304.88" y="21.6">y</tspan><tspan x="307.96" y="21.6">one, and if </tspan><tspan class="cls-16" x="340.25" y="21.6">y</tspan><tspan x="343.33" y="21.6">ou h</tspan><tspan class="cls-14" x="356.64" y="21.6">a</tspan><tspan class="cls-19" x="360.08" y="21.6">v</tspan><tspan x="363.16" y="21.6">e </tspan><tspan class="cls-17" x="368.28" y="21.6">r</tspan><tspan x="370.56" y="21.6">e</tspan><tspan class="cls-24" x="374.14" y="21.6">c</tspan><tspan x="377.42" y="21.6">ei</tspan><tspan class="cls-16" x="382.57" y="21.6">v</tspan><tspan x="385.64" y="21.6">ed this message in e</tspan><tspan class="cls-24" x="446.36" y="21.6">r</tspan><tspan class="cls-17" x="448.67" y="21.6">r</tspan><tspan x="450.95" y="21.6">o</tspan><tspan class="cls-14" x="454.67" y="21.6">r</tspan><tspan x="456.98" y="21.6">, </tspan><tspan class="cls-19" x="459.72" y="21.6">y</tspan><tspan x="462.8" y="21.6">ou should </tspan><tspan class="cls-17" x="493.87" y="21.6">r</tspan><tspan x="496.15" y="21.6">etu</tspan><tspan class="cls-23" x="506.14" y="21.6">r</tspan><tspan x="508.45" y="21.6">n </tspan><tspan class="cls-40" x="514.03" y="21.6">i</tspan><tspan x="515.51" y="21.6">t </tspan><tspan class="cls-41" x="519.44" y="21.6">t</tspan><tspan class="cls-33" x="521.72" y="21.6">o the sende</tspan><tspan class="cls-42" x="556.65" y="21.6">r</tspan><tspan x="558.96" y="21.6">, and </tspan><tspan x="0" y="28.8">dele</tspan><tspan class="cls-35" x="12.78" y="28.8">t</tspan><tspan x="15.05" y="28.8">e the </tspan><tspan class="cls-23" x="31.73" y="28.8">c</tspan><tspan x="35" y="28.8">o</tspan><tspan class="cls-17" x="38.72" y="28.8">p</tspan><tspan x="42.69" y="28.8">y </tspan><tspan class="cls-19" x="47.4" y="28.8">y</tspan><tspan x="50.48" y="28.8">ou </tspan><tspan class="cls-17" x="59.75" y="28.8">r</tspan><tspan x="62.03" y="28.8">e</tspan><tspan class="cls-24" x="65.62" y="28.8">c</tspan><tspan x="68.89" y="28.8">ei</tspan><tspan class="cls-19" x="74.04" y="28.8">v</tspan><tspan x="77.12" y="28.8">ed. </tspan><tspan class="cls-43" x="87.49" y="28.8">Y</tspan><tspan x="90.88" y="28.8">ou m</tspan><tspan class="cls-26" x="106.54" y="28.8">a</tspan><tspan x="109.91" y="28.8">y not </tspan><tspan class="cls-22" x="126.31" y="28.8">t</tspan><tspan x="128.57" y="28.8">a</tspan><tspan class="cls-44" x="132.07" y="28.8">k</tspan><tspan x="135.44" y="28.8">e a</tspan><tspan class="cls-26" x="144.07" y="28.8">n</tspan><tspan x="147.97" y="28.8">y a</tspan><tspan class="cls-18" x="156.18" y="28.8">c</tspan><tspan x="159.55" y="28.8">tion </tspan><tspan class="cls-45" x="172.8" y="28.8">b</tspan><tspan x="176.84" y="28.8">ased on in</tspan><tspan class="cls-24" x="207.28" y="28.8">f</tspan><tspan x="209.2" y="28.8">o</tspan><tspan class="cls-23" x="212.92" y="28.8">r</tspan><tspan x="215.23" y="28.8">mation </tspan><tspan class="cls-19" x="238.36" y="28.8">y</tspan><tspan x="241.44" y="28.8">ou h</tspan><tspan class="cls-14" x="254.75" y="28.8">a</tspan><tspan class="cls-19" x="258.19" y="28.8">v</tspan><tspan x="261.27" y="28.8">e </tspan><tspan class="cls-17" x="266.4" y="28.8">r</tspan><tspan x="268.67" y="28.8">e</tspan><tspan class="cls-23" x="272.26" y="28.8">c</tspan><tspan x="275.53" y="28.8">ei</tspan><tspan class="cls-19" x="280.68" y="28.8">v</tspan><tspan x="283.76" y="28.8">ed in e</tspan><tspan class="cls-24" x="303.66" y="28.8">r</tspan><tspan class="cls-17" x="305.97" y="28.8">r</tspan><tspan x="308.25" y="28.8">o</tspan><tspan class="cls-14" x="311.97" y="28.8">r</tspan><tspan x="314.27" y="28.8">. </tspan><tspan class="cls-44" x="317.02" y="28.8">W</tspan><tspan x="323.48" y="28.8">hile all </tspan><tspan class="cls-17" x="343.94" y="28.8">r</tspan><tspan class="cls-19" x="346.22" y="28.8">e</tspan><tspan x="349.72" y="28.8">asonable e</tspan><tspan class="cls-46" x="381.66" y="28.8">f</tspan><tspan class="cls-24" x="383.65" y="28.8">f</tspan><tspan x="385.56" y="28.8">o</tspan><tspan class="cls-36" x="389.28" y="28.8">r</tspan><tspan x="391.73" y="28.8">ts h</tspan><tspan class="cls-14" x="402.57" y="28.8">a</tspan><tspan class="cls-19" x="406.01" y="28.8">v</tspan><tspan x="409.09" y="28.8">e been </tspan><tspan class="cls-22" x="431" y="28.8">t</tspan><tspan x="433.27" y="28.8">a</tspan><tspan class="cls-44" x="436.77" y="28.8">k</tspan><tspan x="440.14" y="28.8">en </tspan><tspan class="cls-35" x="449.3" y="28.8">t</tspan><tspan x="451.58" y="28.8">o ensu</tspan><tspan class="cls-17" x="471.34" y="28.8">r</tspan><tspan x="473.62" y="28.8">e that this email and a</tspan><tspan class="cls-26" x="539.77" y="28.8">n</tspan><tspan x="543.67" y="28.8">y </tspan><tspan x="0" y="36">a</tspan><tspan class="cls-17" x="3.5" y="36">t</tspan><tspan class="cls-22" x="5.8" y="36">t</tspan><tspan x="8.07" y="36">a</tspan><tspan class="cls-24" x="11.57" y="36">c</tspan><tspan x="14.84" y="36">hments a</tspan><tspan class="cls-17" x="43.18" y="36">r</tspan><tspan x="45.46" y="36">e f</tspan><tspan class="cls-17" x="52.55" y="36">r</tspan><tspan x="54.83" y="36">ee f</tspan><tspan class="cls-17" x="65.51" y="36">r</tspan><tspan x="67.79" y="36">om viruses and mal</tspan><tspan class="cls-39" x="125.98" y="36">w</tspan><tspan x="131.05" y="36">a</tspan><tspan class="cls-17" x="134.54" y="36">r</tspan><tspan x="136.82" y="36">e, </tspan><tspan class="cls-19" x="143.15" y="36">y</tspan><tspan x="146.23" y="36">ou as the </tspan><tspan class="cls-17" x="174.96" y="36">r</tspan><tspan x="177.24" y="36">e</tspan><tspan class="cls-24" x="180.82" y="36">c</tspan><tspan x="184.1" y="36">ipient a</tspan><tspan class="cls-17" x="206.33" y="36">r</tspan><tspan x="208.61" y="36">e </tspan><tspan class="cls-17" x="213.73" y="36">r</tspan><tspan x="216.01" y="36">esponsible </tspan><tspan class="cls-23" x="249.44" y="36">f</tspan><tspan x="251.36" y="36">or </tspan><tspan class="cls-24" x="258.98" y="36">c</tspan><tspan x="262.26" y="36">he</tspan><tspan class="cls-23" x="269.88" y="36">c</tspan><tspan x="273.16" y="36">king the email and a</tspan><tspan class="cls-26" x="334.21" y="36">n</tspan><tspan x="338.11" y="36">y a</tspan><tspan class="cls-17" x="346.32" y="36">t</tspan><tspan class="cls-22" x="348.62" y="36">t</tspan><tspan x="350.89" y="36">a</tspan><tspan class="cls-24" x="354.39" y="36">c</tspan><tspan x="357.67" y="36">hments. No </tspan><tspan class="cls-17" x="393.85" y="36">r</tspan><tspan x="396.13" y="36">esponsibil</tspan><tspan class="cls-47" x="426.01" y="36">i</tspan><tspan class="cls-48" x="427.49" y="36">t</tspan><tspan x="429.68" y="36">y shall be a</tspan><tspan class="cls-23" x="462.14" y="36">cc</tspan><tspan x="468.7" y="36">ep</tspan><tspan class="cls-35" x="476.33" y="36">t</tspan><tspan x="478.6" y="36">ed </tspan><tspan class="cls-17" x="487.78" y="36">b</tspan><tspan x="491.74" y="36">y the N</tspan><tspan class="cls-23" x="512.89" y="36">F</tspan><tspan class="cls-49" x="516.62" y="36">O</tspan><tspan x="521.53" y="36">, their empl</tspan><tspan class="cls-17" x="555.33" y="36">o</tspan><tspan class="cls-16" x="558.97" y="36">y</tspan><tspan x="562.04" y="36">ees </tspan><tspan x="0" y="43.2">or agents </tspan><tspan class="cls-24" x="29.63" y="43.2">f</tspan><tspan x="31.55" y="43.2">or a</tspan><tspan class="cls-20" x="42.67" y="43.2">n</tspan><tspan x="46.58" y="43.2">y virus or mal</tspan><tspan class="cls-39" x="85.88" y="43.2">w</tspan><tspan x="90.95" y="43.2">a</tspan><tspan class="cls-17" x="94.44" y="43.2">r</tspan><tspan x="96.72" y="43.2">e u</tspan><tspan class="cls-42" x="105.86" y="43.2">n</tspan><tspan x="109.84" y="43.2">w</tspan><tspan class="cls-47" x="115.01" y="43.2">i</tspan><tspan class="cls-17" x="116.5" y="43.2">t</tspan><tspan x="118.81" y="43.2">ting</tspan><tspan class="cls-25" x="130.89" y="43.2">l</tspan><tspan x="132.41" y="43.2">y t</tspan><tspan class="cls-50" x="139.51" y="43.2">r</tspan><tspan x="141.65" y="43.2">ansm</tspan><tspan class="cls-47" x="158.44" y="43.2">i</tspan><tspan class="cls-17" x="159.92" y="43.2">t</tspan><tspan class="cls-35" x="162.23" y="43.2">t</tspan><tspan x="164.5" y="43.2">ed </tspan><tspan class="cls-35" x="173.68" y="43.2">t</tspan><tspan x="175.95" y="43.2">o </tspan><tspan class="cls-16" x="181.21" y="43.2">y</tspan><tspan x="184.29" y="43.2">ou. No email </tspan><tspan class="cls-24" x="223.05" y="43.2">c</tspan><tspan x="226.33" y="43.2">o</tspan><tspan class="cls-23" x="230.05" y="43.2">r</tspan><tspan class="cls-21" x="232.35" y="43.2">r</tspan><tspan x="234.64" y="43.2">esponden</tspan><tspan class="cls-23" x="264.56" y="43.2">c</tspan><tspan x="267.84" y="43.2">e sent </tspan><tspan class="cls-35" x="287.38" y="43.2">t</tspan><tspan x="289.66" y="43.2">o the N</tspan><tspan class="cls-24" x="311.35" y="43.2">F</tspan><tspan x="315.08" y="43.2">O shall be deemed </tspan><tspan class="cls-41" x="372.68" y="43.2">t</tspan><tspan x="374.95" y="43.2">o h</tspan><tspan class="cls-14" x="384.25" y="43.2">a</tspan><tspan class="cls-19" x="387.69" y="43.2">v</tspan><tspan x="390.77" y="43.2">e been </tspan><tspan class="cls-17" x="412.69" y="43.2">r</tspan><tspan x="414.97" y="43.2">e</tspan><tspan class="cls-24" x="418.55" y="43.2">c</tspan><tspan x="421.82" y="43.2">ei</tspan><tspan class="cls-16" x="426.97" y="43.2">v</tspan><tspan x="430.05" y="43.2">ed until su</tspan><tspan class="cls-24" x="461.22" y="43.2">c</tspan><tspan x="464.5" y="43.2">h time as the message has been </tspan><tspan class="cls-17" x="0" y="50.4">r</tspan><tspan x="2.28" y="50.4">esponded </tspan><tspan class="cls-35" x="33.76" y="50.4">t</tspan><tspan class="cls-51" x="36.04" y="50.4">o</tspan><tspan x="39.65" y="50.4">. An au</tspan><tspan class="cls-41" x="59.72" y="50.4">t</tspan><tspan x="61.99" y="50.4">omatical</tspan><tspan class="cls-25" x="87.94" y="50.4">l</tspan><tspan x="89.47" y="50.4">y gene</tspan><tspan class="cls-52" x="109.47" y="50.4">r</tspan><tspan x="111.61" y="50.4">a</tspan><tspan class="cls-41" x="115.1" y="50.4">t</tspan><tspan x="117.38" y="50.4">ed </tspan><tspan class="cls-17" x="126.55" y="50.4">r</tspan><tspan x="128.83" y="50.4">ep</tspan><tspan class="cls-25" x="136.46" y="50.4">l</tspan><tspan class="cls-37" x="137.99" y="50.4">y</tspan><tspan x="140.95" y="50.4">, whether f</tspan><tspan class="cls-17" x="172.37" y="50.4">r</tspan><tspan x="174.65" y="50.4">om a mon</tspan><tspan class="cls-47" x="205.48" y="50.4">i</tspan><tspan class="cls-35" x="206.96" y="50.4">t</tspan><tspan x="209.24" y="50.4">o</tspan><tspan class="cls-17" x="212.96" y="50.4">r</tspan><tspan x="215.24" y="50.4">ed or unmon</tspan><tspan class="cls-40" x="254.23" y="50.4">i</tspan><tspan class="cls-41" x="255.72" y="50.4">t</tspan><tspan x="257.99" y="50.4">o</tspan><tspan class="cls-17" x="261.71" y="50.4">r</tspan><tspan x="263.99" y="50.4">ed inb</tspan><tspan class="cls-39" x="282.82" y="50.4">o</tspan><tspan x="286.43" y="50.4">x, shall not be deemed </tspan><tspan class="cls-35" x="355" y="50.4">t</tspan><tspan x="357.27" y="50.4">o </tspan><tspan class="cls-23" x="362.54" y="50.4">c</tspan><tspan x="365.81" y="50.4">onst</tspan><tspan class="cls-40" x="378.83" y="50.4">i</tspan><tspan x="380.31" y="50.4">tu</tspan><tspan class="cls-41" x="386.72" y="50.4">t</tspan><tspan x="388.99" y="50.4">e su</tspan><tspan class="cls-24" x="401" y="50.4">c</tspan><tspan x="404.27" y="50.4">h a </tspan><tspan class="cls-17" x="414.89" y="50.4">r</tspan><tspan x="417.17" y="50.4">esponse.</tspan></tspan></text>
  <text class="cls-53" transform="translate(196.02 30.75)">Full Name and Full Surname</text>
  <text class="cls-54" transform="translate(197.19 46.26)">Shared Services</text>
  <text class="cls-55" transform="translate(210.12 67.59)">+27 (0)83 299 2419</text>
  <text class="cls-55" transform="translate(331.28 67.1)">priya@nfosa.co.za</text>
  <g id="TjpMji">
    <path class="cls-3" d="M201.28,57.79c5.87-.66,8.37,6.91,3.53,9.82a5.33,5.33,0,1,1-3.53-9.82Zm-1.15,2.37a1.27,1.27,0,0,0-1,1.4c.17,1.71,2.88,4.42,4.64,4.41a1,1,0,0,0,.56-2c-.89-.6-1.1.33-1.56.33s-1.94-1.52-2-2,.43-.59.51-1S200.63,60.11,200.13,60.16Z"/>
  </g>
  <g id="llUo42">
    <path class="cls-3" d="M327.05,60.46A5.39,5.39,0,1,1,318.26,62,5.39,5.39,0,0,1,327.05,60.46Zm-.66,1.4h-6.46s0,0,0,.06a9.61,9.61,0,0,0,.91.89c.56.55,1.09,1.12,1.65,1.67.11.1.31.32.41.39s.12.08.19,0c1.08-1,2.19-2,3.26-3a.08.08,0,0,1,.05,0S326.39,61.86,326.39,61.86Zm-6.74.26v4.16l2-2.16Zm7.06,0-2.14,2,1.35,1.39c.22.25.46.5.7.74,0,0,0,.08.09.07Zm-6.8,4.43h6.54l-2.15-2.23-.93.85a.57.57,0,0,1-.51.07c-.22-.08-.64-.63-.85-.81,0,0-.07-.06-.09-.05Z"/>
  </g>
  <text class="cls-55" transform="translate(210.35 83.19)">www.nfosa.co.za</text>
  <g>
    <path class="cls-3" d="M236.88,101.85l-2.13-1.16c-.08,0-.38,0-.38.11v2.26c0,.1.29.16.38.11l2.22-1.1C237.06,102,237,101.9,236.88,101.85Z"/>
    <path class="cls-3" d="M235.34,95.16a6.74,6.74,0,1,0,6.75,6.74A6.74,6.74,0,0,0,235.34,95.16Zm4.54,7.89a1.94,1.94,0,0,1-1.94,1.94H233a1.94,1.94,0,0,1-1.94-1.94v-2.3A1.93,1.93,0,0,1,233,98.82h4.94a1.93,1.93,0,0,1,1.94,1.93Z"/>
  </g>
  <path class="cls-3" d="M203.59,95.16a6.74,6.74,0,1,0,6.74,6.74A6.74,6.74,0,0,0,203.59,95.16Zm2.65,3.4h-.79a.91.91,0,0,0-1,1v1.18h1.74l-.28,1.81h-1.46v4.37h-2v-4.37h-1.59v-1.81h1.59V99.34a2.22,2.22,0,0,1,2.37-2.44,9.87,9.87,0,0,1,1.4.12Z"/>
  <path class="cls-3" d="M267.1,95.14a6.74,6.74,0,1,0,6.74,6.74A6.74,6.74,0,0,0,267.1,95.14ZM265.17,105h-1.46V100.3h1.46Zm-.73-5.31a.84.84,0,1,1,.84-.84A.84.84,0,0,1,264.44,99.66Zm6.17,5.31h-1.45V102.7c0-.54,0-1.24-.76-1.24s-.87.59-.87,1.2V105h-1.45V100.3h1.39v.64h0a1.53,1.53,0,0,1,1.38-.76c1.47,0,1.74,1,1.74,2.23Z"/>
  <g>
    <path class="cls-3" d="M253.3,100.5l-1.23.94a.24.24,0,0,1-.28,0l-.92-.68,0,0a.58.58,0,0,0-.8.18l-1.15,1.82a.19.19,0,0,0,.27.25l1.23-.94a.24.24,0,0,1,.28,0l.91.68,0,0a.59.59,0,0,0,.81-.18l1.15-1.82A.19.19,0,0,0,253.3,100.5Z"/>
    <path class="cls-3" d="M251.22,95a6.74,6.74,0,1,0,6.74,6.74A6.74,6.74,0,0,0,251.22,95Zm0,10.41a4.67,4.67,0,0,1-1.13-.15.27.27,0,0,0-.2,0l-.78.34a.27.27,0,0,1-.12,0,.31.31,0,0,1-.32-.3l0-.7a.32.32,0,0,0-.1-.22,3.7,3.7,0,0,1-1.23-2.8,3.9,3.9,0,1,1,3.9,3.79Z"/>
  </g>
  <g>
    <polygon class="cls-3" points="219.53 101.17 217.73 98.59 216.77 98.59 219 101.78 219.28 102.19 219.28 102.19 221.2 104.92 222.16 104.92 219.81 101.57 219.53 101.17"/>
    <path class="cls-3" d="M219.47,95a6.74,6.74,0,1,0,6.74,6.74A6.74,6.74,0,0,0,219.47,95Zm1.43,10.37L219,102.55l-2.43,2.82h-.62l2.77-3.22-2.77-4H218l1.83,2.66,2.3-2.66h.62l-2.64,3.07h0l2.88,4.18Z"/>
  </g>
  <text class="cls-56" transform="translate(20.57 130.28)">National Finan<tspan class="cls-25" x="44.63" y="0">c</tspan><tspan x="48.02" y="0">ial Ombud S</tspan><tspan class="cls-25" x="85.53" y="0">c</tspan><tspan x="88.92" y="0">heme South Af</tspan><tspan class="cls-25" x="134.59" y="0">r</tspan><tspan x="137.01" y="0">ica NPC es</tspan><tspan class="cls-22" x="169.09" y="0">t</tspan><tspan x="171.45" y="0">ablished on 1 Ma</tspan><tspan class="cls-57" x="221.61" y="0">r</tspan><tspan class="cls-25" x="224" y="0">c</tspan><tspan x="227.38" y="0">h </tspan><tspan class="cls-58" x="233.08" y="0">2</tspan><tspan x="236.52" y="0">0</tspan><tspan class="cls-41" x="240.52" y="0">2</tspan><tspan class="cls-59" x="243.85" y="0">4</tspan><tspan x="247.98" y="0">. Regist</tspan><tspan class="cls-60" x="270.3" y="0">r</tspan><tspan x="272.5" y="0">ation Number </tspan><tspan class="cls-58" x="316.87" y="0">2</tspan><tspan x="320.31" y="0">023</tspan><tspan class="cls-61" x="331.18" y="0">/</tspan><tspan x="333.48" y="0">16</tspan><tspan class="cls-41" x="339.4" y="0">2</tspan><tspan x="342.73" y="0">4</tspan><tspan class="cls-25" x="346.74" y="0">0</tspan><tspan class="cls-62" x="350.7" y="0">7</tspan><tspan class="cls-49" x="354.04" y="0">/</tspan><tspan x="356.03" y="0">0</tspan><tspan class="cls-63" x="360.03" y="0">8</tspan><tspan class="cls-27" x="363.96" y="0">. The National Finan</tspan><tspan class="cls-25" x="424.46" y="0">c</tspan><tspan x="427.84" y="0">ial Ombud S</tspan><tspan class="cls-25" x="465.36" y="0">c</tspan><tspan x="468.74" y="0">heme South Af</tspan><tspan class="cls-25" x="514.42" y="0">r</tspan><tspan x="516.84" y="0">ica </tspan><tspan x="0" y="7.2">(N</tspan><tspan class="cls-64" x="6.89" y="7.2">F</tspan><tspan class="cls-65" x="10.66" y="7.2">O</tspan><tspan x="15.77" y="7.2">) is </tspan><tspan class="cls-57" x="25.7" y="7.2">r</tspan><tspan x="28.09" y="7.2">e</tspan><tspan class="cls-66" x="31.76" y="7.2">c</tspan><tspan class="cls-33" x="35.14" y="7.2">ognised as an independent indust</tspan><tspan class="cls-45" x="139.45" y="7.2">r</tspan><tspan x="141.9" y="7.2">y ombud s</tspan><tspan class="cls-25" x="173.89" y="7.2">c</tspan><tspan x="177.27" y="7.2">heme </tspan><tspan class="cls-19" x="196.65" y="7.2">b</tspan><tspan x="200.66" y="7.2">y the Ombud </tspan><tspan class="cls-26" x="242.72" y="7.2">C</tspan><tspan x="246.87" y="7.2">oun</tspan><tspan class="cls-25" x="258.83" y="7.2">c</tspan><tspan x="262.21" y="7.2">il (OC</tspan><tspan class="cls-22" x="278.51" y="7.2">/</tspan><tspan x="280.5" y="7.2">001/</tspan><tspan class="cls-35" x="292.84" y="7.2">2</tspan><tspan x="296.17" y="7.2">4).</tspan><tspan class="cls-67"><tspan x="0" y="14.4">JHB offi</tspan><tspan class="cls-25" x="24.78" y="14.4">c</tspan><tspan x="28.28" y="14.4">e: </tspan><tspan class="cls-68" x="35.34" y="14.4">110 </tspan><tspan class="cls-69" x="45.4" y="14.4">O</tspan><tspan class="cls-68" x="50.36" y="14.4">x</tspan><tspan class="cls-70" x="53.67" y="14.4">f</tspan><tspan class="cls-68" x="55.74" y="14.4">o</tspan><tspan class="cls-71" x="59.55" y="14.4">r</tspan><tspan class="cls-68" x="61.94" y="14.4">d R</tspan><tspan class="cls-72" x="72" y="14.4">o</tspan><tspan class="cls-68" x="75.79" y="14.4">ad, Hough</tspan><tspan class="cls-73" x="107.41" y="14.4">t</tspan><tspan class="cls-68" x="109.79" y="14.4">on </tspan><tspan class="cls-74" x="119.3" y="14.4">E</tspan><tspan class="cls-68" x="123.27" y="14.4">s</tspan><tspan class="cls-75" x="126.28" y="14.4">t</tspan><tspan class="cls-68" x="128.64" y="14.4">a</tspan><tspan class="cls-73" x="132.23" y="14.4">t</tspan><tspan class="cls-68" x="134.61" y="14.4">e, Ill</tspan><tspan class="cls-76" x="146.46" y="14.4">ov</tspan><tspan class="cls-71" x="153.45" y="14.4">o</tspan><tspan class="cls-68" x="157.19" y="14.4">, Johannesbu</tspan><tspan class="cls-71" x="197.73" y="14.4">r</tspan><tspan class="cls-77" x="200.11" y="14.4">g, 2198 </tspan><tspan x="222.07" y="14.4">C</tspan><tspan class="cls-78" x="226.42" y="14.4">P</tspan><tspan x="230.58" y="14.4">T offi</tspan><tspan class="cls-25" x="246.38" y="14.4">c</tspan><tspan x="249.88" y="14.4">e:</tspan><tspan class="cls-68" x="255.24" y="14.4" xml:space="preserve"> Cla</tspan><tspan class="cls-71" x="266.39" y="14.4">r</tspan><tspan class="cls-68" x="268.78" y="14.4">emont </tspan><tspan class="cls-79" x="290.79" y="14.4">C</tspan><tspan class="cls-68" x="294.94" y="14.4">ent</tspan><tspan class="cls-80" x="305.18" y="14.4">r</tspan><tspan class="cls-68" x="307.38" y="14.4">al Building, 6th Floo</tspan><tspan class="cls-81" x="368.16" y="14.4">r</tspan><tspan class="cls-68" x="370.56" y="14.4">, 6 </tspan><tspan class="cls-82" x="378.85" y="14.4">V</tspan><tspan class="cls-68" x="383.04" y="14.4">in</tspan><tspan class="cls-83" x="388.8" y="14.4">e</tspan><tspan class="cls-84" x="392.46" y="14.4">y</tspan><tspan class="cls-68" x="395.68" y="14.4">a</tspan><tspan class="cls-85" x="399.27" y="14.4">r</tspan><tspan class="cls-68" x="401.66" y="14.4">d R</tspan><tspan class="cls-72" x="411.73" y="14.4">o</tspan><tspan class="cls-68" x="415.51" y="14.4">ad, Cla</tspan><tspan class="cls-71" x="435.7" y="14.4">r</tspan><tspan class="cls-68" x="438.09" y="14.4">emon</tspan><tspan class="cls-86" x="456" y="14.4">t</tspan><tspan class="cls-68" x="458.54" y="14.4">, 7</tspan><tspan class="cls-87" x="465.11" y="14.4">7</tspan><tspan class="cls-68" x="468.58" y="14.4">08</tspan><tspan class="cls-88" x="0" y="21.6">P</tspan><tspan x="4.33" y="21.6">os</tspan><tspan class="cls-39" x="11.44" y="21.6">t</tspan><tspan x="13.94" y="21.6">al </tspan><tspan class="cls-89" x="21.15" y="21.6">A</tspan><tspan x="25.72" y="21.6">dd</tspan><tspan class="cls-23" x="34.02" y="21.6">r</tspan><tspan x="36.55" y="21.6">ess:</tspan><tspan class="cls-68" x="48.28" y="21.6"> </tspan><tspan class="cls-90" x="49.9" y="21.6">P</tspan><tspan class="cls-75" x="54.06" y="21.6">.O</tspan><tspan class="cls-68" x="60.22" y="21.6">. B</tspan><tspan class="cls-91" x="67.74" y="21.6">o</tspan><tspan class="cls-68" x="71.45" y="21.6">x </tspan><tspan class="cls-72" x="76.38" y="21.6">3</tspan><tspan class="cls-68" x="79.78" y="21.6">2</tspan><tspan class="cls-72" x="83.23" y="21.6">3</tspan><tspan class="cls-68" x="86.63" y="21.6">3</tspan><tspan class="cls-92" x="90.06" y="21.6">4</tspan><tspan class="cls-68" x="94.19" y="21.6">, B</tspan><tspan class="cls-80" x="101.71" y="21.6">r</tspan><tspan class="cls-68" x="103.91" y="21.6">aam</tspan><tspan class="cls-70" x="117.43" y="21.6">f</tspan><tspan class="cls-68" x="119.5" y="21.6">on</tspan><tspan class="cls-93" x="127.4" y="21.6">t</tspan><tspan class="cls-68" x="129.77" y="21.6">ein, </tspan><tspan class="cls-94" x="142.18" y="21.6">2</tspan><tspan class="cls-68" x="145.62" y="21.6">017</tspan><tspan x="155.43" y="21.6" xml:space="preserve">   </tspan><tspan class="cls-95" x="160.52" y="21.6">T</tspan><tspan x="163.9" y="21.6">el: </tspan><tspan class="cls-68" x="172.76" y="21.6" xml:space="preserve">0860 800 900   </tspan><tspan class="cls-89" x="219.97" y="21.6">W</tspan><tspan x="226.92" y="21.6">hatsApp:</tspan><tspan class="cls-68" x="255.01" y="21.6" xml:space="preserve"> 066 </tspan><tspan class="cls-96" x="269.65" y="21.6">4</tspan><tspan class="cls-97" x="273.38" y="21.6">7</tspan><tspan class="cls-68" x="276.92" y="21.6">3 01</tspan><tspan class="cls-98" x="288.19" y="21.6">5</tspan><tspan class="cls-68" x="291.55" y="21.6">7 </tspan><tspan x="296.75" y="21.6" xml:space="preserve">  Email: </tspan><tspan class="cls-68" x="321.05" y="21.6">in</tspan><tspan class="cls-70" x="326.81" y="21.6">f</tspan><tspan class="cls-68" x="328.88" y="21.6">o@n</tspan><tspan class="cls-97" x="342.98" y="21.6">f</tspan><tspan class="cls-99" x="345.05" y="21.6">osa</tspan><tspan class="cls-85" x="355.46" y="21.6">.</tspan><tspan class="cls-70" x="356.75" y="21.6">c</tspan><tspan class="cls-85" x="360.13" y="21.6">o</tspan><tspan class="cls-99" x="363.86" y="21.6" xml:space="preserve">.za   </tspan><tspan class="cls-95" x="376.78" y="21.6">W</tspan><tspan x="383.43" y="21.6">eb: </tspan><tspan class="cls-70" x="394.62" y="21.6">ww</tspan><tspan class="cls-100" x="405.32" y="21.6">w</tspan><tspan class="cls-68" x="410.51" y="21.6">.n</tspan><tspan class="cls-70" x="415.96" y="21.6">f</tspan><tspan class="cls-68" x="418.03" y="21.6">osa</tspan><tspan class="cls-85" x="428.43" y="21.6">.</tspan><tspan class="cls-70" x="429.72" y="21.6">c</tspan><tspan class="cls-71" x="433.1" y="21.6">o</tspan><tspan class="cls-68" x="436.84" y="21.6">.za</tspan></tspan></text>
  <g id="Large_NFO" data-name="Large NFO">
    <g class="cls-101">
      <g class="cls-102">
        <rect class="cls-103" x="2.41" y="19.57" width="83.12" height="83.12" transform="translate(-30.34 49) rotate(-45)"/>
      </g>
      <g class="cls-104">
        <rect class="cls-105" x="86.08" y="8.6" width="83.03" height="83.03" transform="translate(1.94 104.9) rotate(-45)"/>
      </g>
      <g class="cls-106">
        <rect class="cls-107" x="14.93" y="33.51" width="57.84" height="55.25"/>
      </g>
      <polygon class="cls-108" points="116.54 63.71 122.74 63.71 122.74 53.42 135.52 53.42 135.52 48.72 122.74 48.72 122.74 41.13 136.58 41.13 136.62 36.43 116.54 36.43 116.54 63.71"/>
      <g class="cls-101">
        <path class="cls-108" d="M167.9,42.84a13.84,13.84,0,0,0-5.3-5,16.51,16.51,0,0,0-15.15,0,13.84,13.84,0,0,0-5.3,5A13.65,13.65,0,0,0,140.23,50a14,14,0,0,0,1.92,7.27,13.84,13.84,0,0,0,5.3,5.11,16.35,16.35,0,0,0,15.15,0A13.85,13.85,0,0,0,169.83,50a13.66,13.66,0,0,0-1.93-7.17m-5.57,11.79a8.44,8.44,0,0,1-3,3.29,7.77,7.77,0,0,1-4.22,1.22,7.92,7.92,0,0,1-4.24-1.21,9,9,0,0,1-3.08-3.28,9.68,9.68,0,0,1,0-9.15,8.53,8.53,0,0,1,3.09-3.27,8.06,8.06,0,0,1,4.25-1.18,7.86,7.86,0,0,1,4.21,1.19,8.41,8.41,0,0,1,3,3.27,10.08,10.08,0,0,1,0,9.12"/>
        <polygon class="cls-108" points="104.91 54.84 90.99 36.43 85.37 36.43 85.37 63.71 91.08 63.71 91.08 45.43 104.96 63.71 110.53 63.71 110.53 36.43 104.86 36.43 104.91 54.84"/>
      </g>
      <text class="cls-109" transform="translate(83.78 77.06)"><tspan class="cls-110">Nat</tspan><tspan class="cls-111" x="17.88" y="0">i</tspan><tspan x="20.5" y="0">o</tspan></text>
      <text class="cls-109" transform="translate(110.44 77.06)"><tspan class="cls-111">n</tspan><tspan x="6.68" y="0">a</tspan></text>
      <text class="cls-109" transform="translate(122.92 77.06)">l</text>
      <text class="cls-109" transform="translate(125.54 77.06)"><tspan class="cls-112"> </tspan><tspan x="2.54" y="0">F</tspan></text>
      <text class="cls-109" transform="translate(134.32 77.06)">i</text>
      <text class="cls-109" transform="translate(136.94 77.06)"><tspan class="cls-111">n</tspan><tspan x="6.68" y="0">a</tspan></text>
      <text class="cls-109" transform="translate(149.43 77.06)">n</text>
      <text class="cls-109" transform="translate(156.12 77.06)">c</text>
      <text class="cls-109" transform="translate(161.66 77.06)">i</text>
      <text class="cls-109" transform="translate(164.28 77.06)">a</text>
      <text class="cls-109" transform="translate(170.09 77.06)">l</text>
      <text class="cls-109" transform="translate(172.71 77.06)"> </text>
      <text class="cls-109" transform="translate(83.78 86.53)">O</text>
      <text class="cls-113" transform="translate(92.07 86.53)">m<tspan class="cls-114" x="10.52" y="0">b</tspan><tspan x="17.22" y="0">u</tspan><tspan class="cls-115" x="23.87" y="0">d</tspan></text>
      <text class="cls-116" transform="translate(122.62 86.53)"> <tspan class="cls-117" x="2.54" y="0">S</tspan></text>
      <text class="cls-109" transform="translate(131.22 86.53)"><tspan class="cls-110">c</tspan><tspan x="5.56" y="0">h</tspan></text>
      <text class="cls-109" transform="translate(143.46 86.53)">e</text>
      <text class="cls-109" transform="translate(149.41 86.53)">m</text>
      <text class="cls-109" transform="translate(159.92 86.53)">e</text>
      <text class="cls-118" transform="translate(83.78 95.49)">S</text>
      <text class="cls-118" transform="translate(88.79 95.49)">o</text>
      <text class="cls-118" transform="translate(93.88 95.49)">u</text>
      <text class="cls-118" transform="translate(99.36 95.49)">t</text>
      <text class="cls-118" transform="translate(102.69 95.49)">h</text>
      <text class="cls-118" transform="translate(108.21 95.49)"> </text>
      <text class="cls-118" transform="translate(110.43 95.49)">A</text>
      <text class="cls-118" transform="translate(116.19 95.49)"><tspan class="cls-119">f</tspan><tspan x="2.78" y="0">r</tspan></text>
      <text class="cls-118" transform="translate(122.27 95.49)">i</text>
      <text class="cls-118" transform="translate(124.53 95.49)">c</text>
      <text class="cls-118" transform="translate(128.88 95.49)">a</text>
    </g>
  </g>
</svg>
